<?xml version="1.0" encoding="UTF-8" standalone="no"?>
<svg viewBox="0 0 168 168" xmlns="http://www.w3.org/2000/svg">
  <!-- Círculo negro de fondo (modo oscuro) -->
  <circle cx="84" cy="84" r="84" fill="#121212"/>
  
  <!-- Borde verde sutilmente brillante (estilo Spotify) -->
  <circle cx="84" cy="84" r="82" fill="none" stroke="#1DB954" stroke-width="2"/>
  
  <!-- Letra H con efecto de ondas sonoras -->
  <g fill="#1DB954">
    <!-- Pilar izquierdo con ondas -->
    <path d="M59 50 
             C61 50, 63 50, 65 50
             C67 55, 66 60, 68 65
             C70 70, 67 75, 69 80
             C71 85, 66 90, 68 95
             C70 100, 67 105, 69 110
             C71 115, 65 118, 63 118
             C61 118, 59 118, 57 118
             C55 113, 58 108, 56 103
             C54 98, 57 93, 55 88
             C53 83, 58 78, 56 73
             C54 68, 57 63, 55 58
             C53 53, 57 50, 59 50Z" />
    
    <!-- Pilar derecho con ondas -->
    <path d="M109 50 
             C107 50, 105 50, 103 50
             C101 55, 102 60, 100 65
             C98 70, 101 75, 99 80
             C97 85, 102 90, 100 95
             C98 100, 101 105, 99 110
             C97 115, 103 118, 105 118
             C107 118, 109 118, 111 118
             C113 113, 110 108, 112 103
             C114 98, 111 93, 113 88
             C115 83, 110 78, 112 73
             C114 68, 111 63, 113 58
             C115 53, 111 50, 109 50Z" />
    
    <!-- Barra conectora central con ondas -->
    <path d="M68 83
             C72 82, 76 85, 80 84
             C84 83, 88 82, 92 83
             C96 84, 100 83, 104 84
             C100 86, 96 85, 92 86
             C88 87, 84 86, 80 85
             C76 84, 72 85, 68 84
             C72 82, 76 82, 80 83
             C84 84, 88 85, 92 84
             C96 83, 100 84, 104 83
             C100 81, 96 82, 92 81
             C88 80, 84 81, 80 82
             C76 83, 72 81, 68 83Z" />
  </g>
</svg>