<?xml version="1.0" encoding="UTF-8" standalone="no"?>
<svg viewBox="0 0 168 168" xmlns="http://www.w3.org/2000/svg">
  <!-- Definición de degradados -->
  <defs>
    <!-- Degradado radial para el fondo con más contraste -->
    <radialGradient id="darkGradient" cx="50%" cy="50%" r="70%" fx="50%" fy="50%">
      <stop offset="0%" stop-color="#2a2a2a" />
      <stop offset="50%" stop-color="#1a1a1a" />
      <stop offset="100%" stop-color="#0d0d0d" />
    </radialGradient>
    
    <!-- Degradado sutil para el verde -->
    <linearGradient id="subtleGreen" x1="0%" y1="0%" x2="0%" y2="100%">
      <stop offset="0%" stop-color="#19a349" />
      <stop offset="100%" stop-color="#15864d" />
    </linearGradient>
    
    <!-- Degradado para el triángulo de play -->
    <linearGradient id="playGradient" x1="0%" y1="0%" x2="100%" y2="100%">
      <stop offset="0%" stop-color="#333333" />
      <stop offset="100%" stop-color="#1e1e1e" />
    </linearGradient>
    
    <!-- Trayectoria circular para textos -->
    <path id="topCirclePath" d="M14,84 A70,70 0 1,1 154,84" />
    <path id="bottomCirclePath" d="M154,84 A70,70 0 1,1 14,84" />
    
    <!-- Clip para las ondas dentro del círculo -->
    <clipPath id="circleClip">
      <circle cx="84" cy="84" r="26" />
    </clipPath>
  </defs>
  
  <!-- Círculo con degradado de grises oscuros más contrastado -->
  <circle cx="84" cy="84" r="84" fill="url(#darkGradient)"/>
  
  <!-- Fechas en verde siguiendo la curvatura del círculo con fuente Segoe UI -->
  <g font-family="'Segoe UI', sans-serif" font-weight="400" letter-spacing="0.5" fill="url(#subtleGreen)">
    <!-- Aplicando texto sobre caminos curvos -->
    <text font-size="11" opacity="0.9">
      <textPath href="#topCirclePath" startOffset="0%">1950</textPath>
    </text>
    <text font-size="11" opacity="0.9">
      <textPath href="#topCirclePath" startOffset="25%">1970</textPath>
    </text>
    <text font-size="11" opacity="0.9">
      <textPath href="#topCirclePath" startOffset="50%">1987</textPath>
    </text>
    <text font-size="11" opacity="0.9">
      <textPath href="#topCirclePath" startOffset="75%">1990</textPath>
    </text>
    <text font-size="11" opacity="0.9">
      <textPath href="#bottomCirclePath" startOffset="0%">2000</textPath>
    </text>
    <text font-size="11" opacity="0.9">
      <textPath href="#bottomCirclePath" startOffset="25%">2010</textPath>
    </text>
    <text font-size="11" opacity="0.9">
      <textPath href="#bottomCirclePath" startOffset="50%">2020</textPath>
    </text>
    <text font-size="11" opacity="0.9">
      <textPath href="#bottomCirclePath" startOffset="75%">2025</textPath>
    </text>
  </g>
  
  <!-- Icono de play mejorado en el centro - con ondas de Spotify -->
  <g>
    <!-- 1. Círculo base para el botón de play con degradado (capa inferior) -->
    <circle cx="84" cy="84" r="26" fill="url(#subtleGreen)" />
    
    <!-- 2. Ondas de Spotify dentro del círculo (capa intermedia) -->
    <g clip-path="url(#circleClip)">
      <!-- Ondas rellenas para evitar líneas dobles -->
      <path d="M84 70
               C101 70, 116 78, 124 92
               C115 79, 101 72, 84 72
               C67 72, 53 79, 45 92
               C52 78, 67 70, 84 70Z" 
            fill="#0a0a0a" fill-opacity="0.15" stroke="none"/>
      
      <path d="M84 82
               C96 82, 106 87, 112 97
               C105 88, 96 84, 84 84
               C72 84, 63 88, 57 97
               C62 87, 72 82, 84 82Z" 
            fill="#0a0a0a" fill-opacity="0.15" stroke="none"/>
      
      <path d="M84 94
               C91 94, 98 97, 101 103
               C97 98, 91 96, 84 96
               C77 96, 71 98, 68 103
               C70 97, 77 94, 84 94Z" 
            fill="#0a0a0a" fill-opacity="0.15" stroke="none"/>
    </g>
    
    <!-- 3. Triángulo de play con forma suavizada (capa superior) -->
    <path d="M77,72 C75.5,71 74,71.5 74,74 V94 C74,96.5 75.5,97 77,96 L97,86 C98.5,85 98.5,83 97,82 L77,72Z" 
          fill="url(#playGradient)" />
  </g>
</svg>